<?xml version="1.0" standalone="no"?>
<!DOCTYPE svg PUBLIC "-//W3C//DTD SVG 20010904//EN"
 "http://www.w3.org/TR/2001/REC-SVG-20010904/DTD/svg10.dtd">
<svg version="1.0" xmlns="http://www.w3.org/2000/svg"
 width="500.000000pt" height="500.000000pt" viewBox="0 0 500.000000 500.000000"
 preserveAspectRatio="xMidYMid meet">
<metadata>
Created by potrace 1.11, written by Peter Selinger 2001-2013
</metadata>
<g transform="translate(0.000000,500.000000) scale(0.100000,-0.100000)"
fill="#000000" stroke="none">
<path d="M383 4986 c-181 -44 -334 -202 -372 -384 -16 -75 -16 -4129 0 -4204
29 -137 140 -284 259 -341 126 -61 -18 -57 2230 -57 1813 0 2063 2 2115 15
189 49 336 199 374 383 16 75 16 4129 0 4204 -39 187 -200 348 -387 387 -81
17 -4148 14 -4219 -3z m2473 -1261 c111 -20 237 -62 312 -106 31 -19 91 -68
132 -109 121 -120 165 -233 164 -420 0 -118 -17 -189 -67 -285 -43 -81 -145
-182 -229 -225 -38 -19 -68 -37 -68 -41 0 -3 23 -13 51 -24 77 -27 193 -109
246 -173 53 -65 95 -151 118 -237 20 -78 20 -261 0 -340 -62 -245 -255 -414
-553 -487 -84 -21 -115 -22 -784 -25 l-698 -4 0 1245 0 1246 644 0 c535 0 658
-3 732 -15z"/>
<path d="M2020 3025 l0 -295 308 0 c324 0 400 8 479 48 92 47 136 125 137 242
0 94 -16 142 -66 196 -82 89 -162 104 -560 104 l-298 0 0 -295z"/>
<path d="M2020 1991 l0 -321 328 0 c414 1 498 13 584 89 56 49 82 119 82 226
0 170 -69 260 -234 303 -41 10 -147 15 -407 19 l-353 5 0 -321z"/>
</g>
</svg>
